<mxfile host="app.diagrams.net" modified="2022-03-10T21:19:19.216Z" agent="5.0 (X11; Linux x86_64) AppleWebKit/537.36 (KHTML, like Gecko) Chrome/99.0.4844.51 Safari/537.36" etag="EFQf4cdq3RHBmsX0_UbN" version="17.1.1" type="github">
  <diagram name="Page-1" id="822b0af5-4adb-64df-f703-e8dfc1f81529">
    <mxGraphModel dx="1422" dy="1627" grid="1" gridSize="10" guides="1" tooltips="1" connect="1" arrows="1" fold="1" page="1" pageScale="1" pageWidth="1100" pageHeight="850" background="none" math="0" shadow="0">
      <root>
        <mxCell id="0" />
        <mxCell id="1" parent="0" />
        <mxCell id="xc1cQ3mp9UyEAQ22YT-R-2" value="" style="whiteSpace=wrap;html=1;aspect=fixed;glass=0;shadow=0;sketch=0;opacity=10;" vertex="1" parent="1">
          <mxGeometry y="-250" width="730" height="730" as="geometry" />
        </mxCell>
        <mxCell id="xc1cQ3mp9UyEAQ22YT-R-1" value="" style="verticalLabelPosition=bottom;sketch=0;aspect=fixed;html=1;verticalAlign=top;strokeColor=none;align=center;outlineConnect=0;shape=mxgraph.citrix.firewall;" vertex="1" parent="1">
          <mxGeometry x="60" y="-120" width="75" height="93" as="geometry" />
        </mxCell>
        <mxCell id="xc1cQ3mp9UyEAQ22YT-R-3" style="edgeStyle=orthogonalEdgeStyle;rounded=0;orthogonalLoop=1;jettySize=auto;html=1;exitX=0.5;exitY=1;exitDx=0;exitDy=0;" edge="1" parent="1" source="xc1cQ3mp9UyEAQ22YT-R-2" target="xc1cQ3mp9UyEAQ22YT-R-2">
          <mxGeometry relative="1" as="geometry" />
        </mxCell>
        <mxCell id="xc1cQ3mp9UyEAQ22YT-R-4" value="" style="verticalLabelPosition=bottom;sketch=0;aspect=fixed;html=1;verticalAlign=top;strokeColor=none;align=center;outlineConnect=0;shape=mxgraph.citrix.firewall;" vertex="1" parent="1">
          <mxGeometry x="60" y="130" width="75" height="93" as="geometry" />
        </mxCell>
        <mxCell id="xc1cQ3mp9UyEAQ22YT-R-5" value="" style="verticalLabelPosition=bottom;sketch=0;aspect=fixed;html=1;verticalAlign=top;strokeColor=none;align=center;outlineConnect=0;shape=mxgraph.citrix.cache_server;shadow=0;glass=0;" vertex="1" parent="1">
          <mxGeometry x="410" y="-194.5" width="71" height="97.5" as="geometry" />
        </mxCell>
        <mxCell id="xc1cQ3mp9UyEAQ22YT-R-6" value="" style="verticalLabelPosition=bottom;sketch=0;aspect=fixed;html=1;verticalAlign=top;strokeColor=none;align=center;outlineConnect=0;shape=mxgraph.citrix.1u_2u_server;shadow=0;glass=0;" vertex="1" parent="1">
          <mxGeometry x="230" y="-90" width="100" height="39.1" as="geometry" />
        </mxCell>
        <mxCell id="xc1cQ3mp9UyEAQ22YT-R-7" value="" style="verticalLabelPosition=bottom;sketch=0;aspect=fixed;html=1;verticalAlign=top;strokeColor=none;align=center;outlineConnect=0;shape=mxgraph.citrix.cache_server;shadow=0;glass=0;" vertex="1" parent="1">
          <mxGeometry x="410" y="-20" width="71" height="97.5" as="geometry" />
        </mxCell>
        <mxCell id="xc1cQ3mp9UyEAQ22YT-R-8" value="" style="verticalLabelPosition=bottom;sketch=0;aspect=fixed;html=1;verticalAlign=top;strokeColor=none;align=center;outlineConnect=0;shape=mxgraph.citrix.cache_server;shadow=0;glass=0;" vertex="1" parent="1">
          <mxGeometry x="410" y="190" width="71" height="97.5" as="geometry" />
        </mxCell>
        <mxCell id="xc1cQ3mp9UyEAQ22YT-R-10" value="" style="curved=1;endArrow=classic;html=1;rounded=0;" edge="1" parent="1" source="xc1cQ3mp9UyEAQ22YT-R-4" target="xc1cQ3mp9UyEAQ22YT-R-16">
          <mxGeometry width="50" height="50" relative="1" as="geometry">
            <mxPoint x="100" y="201.5" as="sourcePoint" />
            <mxPoint x="150" y="151.5" as="targetPoint" />
            <Array as="points">
              <mxPoint x="280" y="240" />
              <mxPoint x="100" y="151.5" />
            </Array>
          </mxGeometry>
        </mxCell>
        <mxCell id="xc1cQ3mp9UyEAQ22YT-R-11" value="" style="curved=1;endArrow=classic;html=1;rounded=0;" edge="1" parent="1" source="xc1cQ3mp9UyEAQ22YT-R-1" target="xc1cQ3mp9UyEAQ22YT-R-16">
          <mxGeometry width="50" height="50" relative="1" as="geometry">
            <mxPoint x="160" y="-40" as="sourcePoint" />
            <mxPoint x="210" y="-90" as="targetPoint" />
            <Array as="points">
              <mxPoint x="180" y="-40" />
              <mxPoint x="210" y="-40" />
              <mxPoint x="160" y="-90" />
            </Array>
          </mxGeometry>
        </mxCell>
        <mxCell id="xc1cQ3mp9UyEAQ22YT-R-13" value="" style="curved=1;endArrow=classic;html=1;rounded=0;" edge="1" parent="1" target="xc1cQ3mp9UyEAQ22YT-R-5">
          <mxGeometry width="50" height="50" relative="1" as="geometry">
            <mxPoint x="310" y="-70" as="sourcePoint" />
            <mxPoint x="360" y="-120" as="targetPoint" />
            <Array as="points">
              <mxPoint x="360" y="-70" />
              <mxPoint x="310" y="-120" />
            </Array>
          </mxGeometry>
        </mxCell>
        <mxCell id="xc1cQ3mp9UyEAQ22YT-R-15" value="" style="curved=1;endArrow=classic;html=1;rounded=0;" edge="1" parent="1" source="xc1cQ3mp9UyEAQ22YT-R-6" target="xc1cQ3mp9UyEAQ22YT-R-7">
          <mxGeometry width="50" height="50" relative="1" as="geometry">
            <mxPoint x="280" y="-20" as="sourcePoint" />
            <mxPoint x="330" y="-70" as="targetPoint" />
            <Array as="points" />
          </mxGeometry>
        </mxCell>
        <mxCell id="xc1cQ3mp9UyEAQ22YT-R-16" value="J" style="verticalLabelPosition=bottom;sketch=0;aspect=fixed;html=1;verticalAlign=top;strokeColor=none;align=center;outlineConnect=0;shape=mxgraph.citrix.cache_server;shadow=0;glass=0;" vertex="1" parent="1">
          <mxGeometry x="170" width="71" height="97.5" as="geometry" />
        </mxCell>
        <mxCell id="xc1cQ3mp9UyEAQ22YT-R-17" value="" style="curved=1;endArrow=classic;html=1;rounded=0;" edge="1" parent="1" source="xc1cQ3mp9UyEAQ22YT-R-16" target="xc1cQ3mp9UyEAQ22YT-R-6">
          <mxGeometry width="50" height="50" relative="1" as="geometry">
            <mxPoint x="200" y="70" as="sourcePoint" />
            <mxPoint x="250" y="20" as="targetPoint" />
            <Array as="points">
              <mxPoint x="250" y="70" />
              <mxPoint x="250" y="10" />
            </Array>
          </mxGeometry>
        </mxCell>
        <mxCell id="xc1cQ3mp9UyEAQ22YT-R-18" value="" style="curved=1;endArrow=classic;html=1;rounded=0;" edge="1" parent="1" source="xc1cQ3mp9UyEAQ22YT-R-16" target="xc1cQ3mp9UyEAQ22YT-R-8">
          <mxGeometry width="50" height="50" relative="1" as="geometry">
            <mxPoint x="270" y="190" as="sourcePoint" />
            <mxPoint x="320" y="140" as="targetPoint" />
            <Array as="points">
              <mxPoint x="320" y="190" />
              <mxPoint x="270" y="140" />
            </Array>
          </mxGeometry>
        </mxCell>
        <mxCell id="xc1cQ3mp9UyEAQ22YT-R-19" value="1st Security Group" style="rounded=0;whiteSpace=wrap;html=1;shadow=0;glass=0;sketch=0;" vertex="1" parent="1">
          <mxGeometry x="30" y="-160" width="120" height="24.5" as="geometry" />
        </mxCell>
        <mxCell id="xc1cQ3mp9UyEAQ22YT-R-20" value="Load balancer" style="rounded=0;whiteSpace=wrap;html=1;shadow=0;glass=0;sketch=0;" vertex="1" parent="1">
          <mxGeometry x="210" y="-130" width="120" height="33" as="geometry" />
        </mxCell>
        <mxCell id="xc1cQ3mp9UyEAQ22YT-R-21" value="Web-1 Web server" style="rounded=0;whiteSpace=wrap;html=1;shadow=0;glass=0;sketch=0;" vertex="1" parent="1">
          <mxGeometry x="386" y="-250" width="120" height="60" as="geometry" />
        </mxCell>
        <mxCell id="xc1cQ3mp9UyEAQ22YT-R-22" value="Web-2 Web server" style="rounded=0;whiteSpace=wrap;html=1;shadow=0;glass=0;sketch=0;" vertex="1" parent="1">
          <mxGeometry x="400" y="-80" width="120" height="60" as="geometry" />
        </mxCell>
        <mxCell id="xc1cQ3mp9UyEAQ22YT-R-23" value="Jump box Provisioner" style="rounded=0;whiteSpace=wrap;html=1;shadow=0;glass=0;sketch=0;" vertex="1" parent="1">
          <mxGeometry x="38" y="18" width="120" height="60" as="geometry" />
        </mxCell>
        <mxCell id="xc1cQ3mp9UyEAQ22YT-R-24" value="2nd Security Group" style="rounded=0;whiteSpace=wrap;html=1;shadow=0;glass=0;sketch=0;" vertex="1" parent="1">
          <mxGeometry x="30" y="240" width="120" height="60" as="geometry" />
        </mxCell>
        <mxCell id="xc1cQ3mp9UyEAQ22YT-R-25" value="ELK - Monitor server&lt;br&gt;" style="rounded=0;whiteSpace=wrap;html=1;shadow=0;glass=0;sketch=0;" vertex="1" parent="1">
          <mxGeometry x="380" y="300" width="120" height="60" as="geometry" />
        </mxCell>
      </root>
    </mxGraphModel>
  </diagram>
</mxfile>
